<?xml version="1.0" encoding="utf-8"?>
<!DOCTYPE svg PUBLIC "-//W3C//DTD SVG 1.1//EN" "http://www.w3.org/Graphics/SVG/1.1/DTD/svg11.dtd">
<svg version="1.1" xmlns="http://www.w3.org/2000/svg" xmlns:xlink="http://www.w3.org/1999/xlink" x="0px" y="0px" viewBox="0 0 1000 1000" enable-background="new 0 0 1000 1000" xml:space="preserve">
<g><path fill="#4a90e2" d="M421.5,320.6c13.1,0,25.7-1.8,37.8-4.8l-53.1-43.5c-18.5-15.1-30-36.6-32.4-60.4c-2.4-23.8,4.7-47.1,19.8-65.5c17-20.9,42.3-32.8,69.2-32.8c20.7,0,40.8,7.2,56.7,20.3L576,180c0.5-4.8,0.7-9.7,0.7-14.7C576.7,79.5,507.2,10,421.5,10c-85.8,0-155.3,69.5-155.3,155.3C266.2,251,335.7,320.6,421.5,320.6z"/><path fill="#4a90e2" d="M773.9,252.8c-30.6,0-59.4,7.1-85.3,19.3c-16.3,7.7-31.5,17.6-45,29.3L487.2,173.3c-7.1-5.9-15.7-8.7-24.3-8.7c-11.1,0-22.1,4.8-29.7,14c-13.5,16.4-11,40.6,5.4,54l157.5,129c-8.2,16-14.4,33.1-18.1,51.3c-1.9,9.6-3,19.6-3.5,29.7l94.5-52.4c17-9.4,36.3-14.4,55.7-14.4c41.8,0,80.4,22.7,100.7,59.4c30.7,55.5,10.5,125.6-44.9,156.4L698,637.3c23.4,9.6,49,15,75.9,15c110.3,0,199.8-89.4,199.8-199.8C973.6,342.3,884.2,252.8,773.9,252.8z"/><path fill="#4a90e2" d="M543.8,664.3l212.1-117.4c30.9-17.1,42-56,25-86.9c-11.6-21.1-33.5-33-56-33c-10.5,0-21.1,2.6-30.9,8L483.7,551.4c-12.1-13.4-25.5-25.5-40.2-36.2c-43.4-31.6-96.6-50.6-154.5-50.6C144,464.6,26.4,582.3,26.4,727.3C26.4,872.4,144,990,289,990c145.1,0,262.7-117.6,262.7-262.7c0-2.9-0.4-5.8-0.5-8.7C550.7,699.9,548.1,681.7,543.8,664.3z M289.4,946.2c-120.8,0-218.8-98-218.8-218.8s97.9-218.8,218.8-218.8c120.8,0,218.8,98,218.8,218.8S410.2,946.2,289.4,946.2z"/><path fill="#4a90e2" d="M208,712.7l-1.2-0.8l-0.1,0.1c-3.5-2.4-7.7-3.8-12.3-3.8c-4.2,0-8.1,1.2-11.5,3.2l0,0L124.4,748l0,0c-6.3,3.9-10.5,10.8-10.5,18.7c0,12.1,9.8,21.9,21.9,21.9c4.6,0,8.9-1.4,12.4-3.8l25-15.6L208,712.7z"/><path fill="#4a90e2" d="M428.3,693.5c-4.8,0-9.3,1.6-12.9,4.3l-111.6,78.8l-44.8-29.9l-23.8,36.8l56.4,37.6c3.6,2.5,7.9,4,12.6,4c4.8,0,9.2-1.5,12.8-4.2v0l124.3-87.7c5.5-4,9.1-10.5,9.1-17.8C450.3,703.3,440.5,693.5,428.3,693.5z"/><path fill="#4a90e2" d="M333.1,729.7c4.2,1,8.8,0.8,13.2-1c4.4-1.8,8-4.8,10.4-8.6l65.9-98.9c3.6-5.7,7.7-14.2,5-21c-4.5-11.3-17.2-16.7-28.5-12.2c-4.5,1.8-8.1,4.9-10.5,8.7l-56,86l-57.7-34.4l0,0.2c-4.1-0.9-8.6-0.7-12.8,1c-3.9,1.6-7.1,4.1-9.5,7.2h0l-97.1,158.6l0,0c-4.4,5.9-7,14.5-4,21.9c4.5,11.3,18.3,15.9,28.4,11c4.1-2,7.1-5,9.5-8.6l87.9-143.3L333.1,729.7z"/></g>
</svg>